<?xml version="1.0" encoding="UTF-8"?>
<svg id="_레이어_1" data-name="레이어 1" xmlns="http://www.w3.org/2000/svg" viewBox="0 0 500 500">
  <defs>
    <style>
      .cls-1 {
        fill: #e8410b;
      }

      .cls-2 {
        fill: #5c4b4d;
      }

      .cls-3 {
        fill: #f6ab00;
      }
    </style>
  </defs>
  <g>
    <path class="cls-2" d="M269.18,250.32h-4.43c.32-1.4.57-2.87.74-4.49.17-1.87.25-3.52.25-5.07v-.42c0-.52-.13-.95-.39-1.3-.28-.28-.72-.43-1.29-.43h-17.15c-.7,0-1.08.37-1.08,1.05v1.94c0,.7.37,1.05,1.08,1.05h14.04l-.02.29c-.06,1.03-.13,2.1-.22,3.2-.16,1.45-.38,2.81-.68,4.16h-17.68c-.7,0-1.08.37-1.08,1.05v1.94c0,.7.37,1.05,1.08,1.05h26.84c.72,0,1.08-.35,1.08-1.05v-1.94c0-.68-.39-1.05-1.08-1.05Z"/>
    <path class="cls-2" d="M264.41,257.29h-17.26c-.6,0-1.06.15-1.3.43-.26.3-.39.71-.39,1.29v7.81c0,.58.12.99.39,1.29.24.28.7.43,1.3.43h17.26c.58,0,1.01-.14,1.31-.44.25-.33.38-.76.38-1.28v-7.81c0-.51-.13-.95-.39-1.3-.28-.28-.72-.43-1.29-.43ZM261.38,261.33v3.17h-11.19v-3.17h11.19Z"/>
    <path class="cls-2" d="M280.6,248.68c.79.63,1.66,1.06,2.66,1.33.99.34,2.16.5,3.68.5s2.67-.16,3.68-.5c1-.28,1.92-.74,2.66-1.33.72-.58,1.27-1.27,1.63-2.06.36-.79.54-1.67.54-2.6s-.18-1.81-.54-2.6c-.36-.79-.91-1.48-1.63-2.06-.66-.53-1.53-.98-2.66-1.37-1.14-.3-2.41-.46-3.68-.46s-2.56.16-3.68.47c-1.11.37-1.95.8-2.66,1.37-.72.58-1.27,1.27-1.63,2.06-.36.79-.54,1.67-.54,2.6s.18,1.81.54,2.6c.36.79.91,1.49,1.63,2.06ZM286.94,241.53c1.35,0,2.4.22,3.03.64.61.47.9,1.08.9,1.84,0,.81-.29,1.4-.9,1.81-.59.46-1.58.68-3.03.68s-2.44-.22-3.04-.69c-.6-.4-.9-.99-.9-1.8,0-.77.3-1.37.9-1.84.64-.43,1.67-.65,3.04-.65Z"/>
    <path class="cls-2" d="M300.34,251.73h-26.84c-.7,0-1.08.37-1.08,1.05v1.94c0,.7.37,1.05,1.08,1.05h5.35v4.82c-.55.87-.81,1.82-.81,2.9,0,1.91.77,3.37,2.35,4.49,1.57,1.1,3.77,1.65,6.55,1.65s4.94-.56,6.55-1.65c1.56-1.12,2.35-2.64,2.35-4.49,0-1.01-.27-1.99-.81-2.9v-4.82h5.31c.72,0,1.09-.35,1.09-1.05v-1.94c0-.68-.39-1.05-1.09-1.05ZM290.31,257.71c-1.11-.24-2.24-.36-3.37-.36s-2.3.12-3.37.36v-1.93h6.74v1.94ZM290.2,265.05c-.67.39-1.76.58-3.26.58s-2.63-.2-3.25-.58c-.62-.39-.93-.91-.93-1.55s.31-1.16.93-1.55c.62-.38,1.75-.58,3.26-.58s2.59.2,3.25.58c.62.41.93.94.93,1.55s-.31,1.14-.92,1.55Z"/>
    <path class="cls-2" d="M329.47,259.62h-26.84c-.7,0-1.08.37-1.08,1.05v1.94c0,.7.37,1.05,1.08,1.05h26.84c.72,0,1.09-.35,1.09-1.05v-1.94c0-.68-.39-1.05-1.09-1.05Z"/>
    <path class="cls-2" d="M307.2,243.47h14.12c-.08,3.99-.54,8.06-1.37,12.07-.12.51-.07.86.14,1.04.16.24.41.36.79.39l2.6.32c.1.03.2.04.29.04.18,0,.34-.05.45-.16.18-.1.26-.34.33-.72.44-2.25.78-4.6,1.06-7.19.28-2.53.42-5.12.42-7.69v-.42c0-.52-.13-.95-.39-1.29-.28-.28-.72-.43-1.29-.43h-17.15c-.7,0-1.08.37-1.08,1.05v1.94c0,.7.37,1.05,1.08,1.05Z"/>
    <path class="cls-2" d="M336.8,251.36h18.21c.72,0,1.08-.35,1.08-1.05v-1.52c0-.68-.39-1.05-1.08-1.05h-15.18v-.94h14.23c.64,0,1.04-.13,1.3-.44.26-.3.39-.73.39-1.29v-4.74c0-.52-.13-.95-.39-1.3-.28-.28-.72-.43-1.29-.43h-17.86c-.7,0-1.08.37-1.08,1.05v1.52c0,.7.37,1.05,1.08,1.05h14.83v.94h-14.23c-.6,0-1.06.15-1.3.43-.26.3-.39.71-.39,1.29v4.74c0,.62.13,1.03.38,1.28.22.3.65.44,1.3.44Z"/>
    <path class="cls-2" d="M354.7,257h-2.62c-.7,0-1.05.37-1.05,1.08v1.46h-11.2v-1.46c0-.7-.37-1.08-1.05-1.08h-2.62c-.7,0-1.05.37-1.05,1.08v8.73c0,.58.12.99.39,1.29.24.28.7.43,1.3.43h17.26c.58,0,1.01-.14,1.31-.44.25-.33.38-.76.38-1.28v-8.73c0-.7-.37-1.08-1.05-1.08ZM351.03,263.42v1.26h-11.2v-1.26h11.2Z"/>
    <path class="cls-2" d="M358.83,252.26h-26.84c-.7,0-1.08.37-1.08,1.05v1.94c0,.7.37,1.05,1.08,1.05h11.08v1.67c0,.72.35,1.08,1.05,1.08h2.62c.68,0,1.05-.39,1.05-1.08v-1.67h11.04c.72,0,1.08-.35,1.08-1.05v-1.94c0-.68-.39-1.05-1.08-1.05Z"/>
  </g>
  <g>
    <path class="cls-2" d="M183.98,267.49c0,.66-.33.98-.98.98h-5.11c-.66,0-.98-.33-.98-.98v-27.82c0-.65.33-.98.98-.98h5.11c.65,0,.98.33.98.98v10.76l10.92-11.21c.16-.16.33-.29.53-.41.16-.08.49-.12.9-.12h5.54c.66,0,1.06.16,1.23.49.12.33,0,.7-.33,1.02l-12.52,12.85,13.75,14.12c.2.2.25.49.16.82-.12.33-.41.49-.86.49h-6.56c-.33,0-.53-.04-.65-.08-.16-.08-.33-.2-.53-.45l-11.58-11.86v11.41Z"/>
    <path class="cls-1" d="M221.46,263.08c-1.81,0-3.28,1.47-3.28,3.28s1.47,3.28,3.28,3.28,3.29-1.47,3.29-3.28-1.47-3.28-3.29-3.28Z"/>
    <path class="cls-1" d="M225.68,244.77c0-2.33-1.9-4.22-4.22-4.22s-4.22,1.9-4.22,4.22c0,.18,1.97,14.44,1.97,14.44h.02c.05,1.2,1.02,2.16,2.23,2.16s2.18-.96,2.23-2.16h.01s1.99-14.03,1.99-14.44Z"/>
    <path class="cls-3" d="M236.21,237.49s-.09-.11-.11-.13c-3.59-4.46-8.92-7.01-14.64-7.01s-11.05,2.55-14.64,7.01c-.02.02-.08.1-.11.13-.29.37-.24.93.12,1.24.02.02.1.08.1.08l3.1,2.48s.15.12.19.15c.27.22.73.24.94.01.06-.07.28-.32.28-.32,2.46-3.06,6.12-4.82,10.03-4.82s7.58,1.76,10.03,4.82c0,0,.22.26.28.32.21.23.67.2.94-.01.05-.04.19-.15.19-.15l3.1-2.48s.07-.06.1-.08c.36-.31.4-.87.12-1.24Z"/>
    <path class="cls-2" d="M156.6,237.66c-9.11,0-16.52,6.88-16.52,15.34,0,9.71,6.79,16.48,16.52,16.48s16.51-6.78,16.51-16.48c0-8.46-7.41-15.34-16.51-15.34ZM156.6,262.57c-5.07,0-9.05-4.19-9.05-9.53,0-4.51,4.23-8.48,9.05-8.48s9.04,3.96,9.04,8.48c0,5.35-3.97,9.53-9.04,9.53Z"/>
  </g>
</svg>